<?xml version="1.0" standalone="no"?>
<!DOCTYPE svg PUBLIC "-//W3C//DTD SVG 20010904//EN"
 "http://www.w3.org/TR/2001/REC-SVG-20010904/DTD/svg10.dtd">
<svg version="1.0" xmlns="http://www.w3.org/2000/svg"
 width="808.000000pt" height="808.000000pt" viewBox="0 0 808.000000 808.000000"
 preserveAspectRatio="xMidYMid meet">
<metadata>
Created by potrace 1.11, written by Peter Selinger 2001-2013
</metadata>
<g transform="translate(0.000000,808.000000) scale(0.100000,-0.100000)"
fill="#000000" stroke="none">
<path d="M4680 7439 c-108 -15 -172 -28 -184 -37 -6 -5 -32 -13 -58 -16 -26
-4 -50 -11 -53 -17 -4 -5 -15 -9 -25 -9 -23 0 -140 -59 -140 -71 0 -4 -25 -24
-56 -44 -63 -42 -124 -102 -124 -122 0 -7 -7 -13 -15 -13 -8 0 -15 -4 -15 -9
0 -20 -106 -45 -202 -47 -53 -1 -119 -8 -146 -14 -40 -11 -52 -20 -72 -54 -14
-23 -24 -53 -22 -69 2 -21 -1 -26 -10 -21 -10 6 -10 4 0 -8 10 -13 10 -17 0
-21 -9 -4 -7 -6 4 -6 11 -1 15 -7 11 -20 -2 -10 2 -24 9 -32 8 -8 15 -18 17
-24 9 -41 14 -55 22 -55 4 0 6 -9 4 -20 -2 -13 3 -21 17 -26 14 -4 17 -9 9
-14 -9 -5 -8 -11 4 -24 9 -9 21 -13 27 -10 7 5 8 2 3 -5 -4 -8 1 -20 14 -32
26 -24 52 -74 44 -83 -4 -3 -1 -6 6 -6 7 0 9 -4 6 -10 -3 -5 -1 -10 5 -10 6 0
25 -13 43 -30 18 -16 38 -30 45 -30 7 0 10 -4 7 -10 -3 -5 1 -10 9 -10 10 0
13 -7 11 -20 -2 -11 0 -18 6 -15 5 4 9 2 9 -4 0 -5 9 -13 20 -16 11 -4 18 -10
15 -15 -3 -4 2 -10 10 -14 8 -3 15 -16 15 -28 0 -19 2 -20 10 -8 8 13 10 12
10 -2 0 -10 5 -18 11 -18 5 0 7 -4 4 -10 -6 -9 7 -14 27 -11 4 0 5 -6 1 -14
-3 -10 13 -34 46 -66 28 -28 49 -55 46 -60 -4 -5 -1 -9 4 -9 6 0 11 -5 11 -11
0 -7 16 -25 35 -42 20 -16 43 -45 51 -63 9 -19 20 -34 25 -34 5 0 9 -8 9 -17
0 -9 3 -14 6 -11 3 4 14 -2 25 -13 11 -11 23 -17 28 -15 4 3 14 -6 21 -19 7
-13 16 -22 20 -20 4 3 13 -9 20 -25 12 -29 72 -90 89 -90 14 0 59 -44 65 -65
13 -40 68 -62 168 -70 56 -4 99 -13 109 -21 8 -8 32 -14 51 -14 20 0 41 -7 48
-15 7 -8 20 -15 30 -15 10 0 23 -7 30 -15 7 -8 20 -15 30 -15 10 0 23 -7 30
-15 7 -8 19 -15 27 -15 8 0 26 -9 40 -20 14 -11 37 -20 50 -20 17 0 48 -23
101 -75 42 -41 82 -75 89 -75 15 0 83 -69 83 -85 0 -7 23 -35 50 -64 28 -29
50 -59 50 -67 0 -8 4 -14 9 -14 5 0 13 -10 16 -22 6 -21 26 -68 46 -110 5 -10
9 -22 9 -27 0 -18 45 -55 103 -86 31 -16 62 -40 68 -52 7 -13 20 -23 29 -23 9
0 30 -11 46 -25 16 -14 52 -32 79 -41 28 -9 55 -21 61 -25 6 -5 13 -7 15 -4 3
2 22 -11 43 -29 24 -22 44 -32 57 -29 10 3 19 1 19 -5 0 -20 69 -50 132 -57
58 -7 83 -19 72 -36 -5 -9 26 -23 64 -27 7 -1 10 -7 6 -14 -5 -7 -3 -8 6 -3 7
4 16 2 21 -6 7 -12 9 -12 9 0 0 10 3 11 14 2 8 -6 20 -10 27 -9 8 2 13 -3 12
-9 -3 -12 10 -17 30 -14 5 1 6 -3 3 -8 -9 -13 16 -27 47 -25 15 0 27 -3 27 -7
0 -5 6 -8 13 -6 6 1 11 -3 10 -9 -1 -7 8 -9 23 -6 17 3 29 -2 39 -14 7 -11 24
-19 37 -19 14 -1 22 -6 20 -14 -2 -9 4 -12 15 -9 18 5 47 -15 37 -25 -3 -2 2
-7 11 -10 8 -4 15 -2 15 3 0 6 7 10 15 10 8 0 15 -4 15 -9 0 -5 7 -8 16 -7 25
2 30 -52 7 -70 -12 -9 -14 -13 -5 -14 31 0 57 -35 60 -79 2 -25 8 -54 14 -65
10 -19 10 -20 -5 -7 -11 8 -17 9 -17 3 0 -6 12 -18 26 -25 22 -12 24 -15 10
-20 -10 -4 -15 -3 -11 3 3 6 2 10 -3 10 -17 0 -21 -12 -11 -37 6 -17 6 -22 -2
-17 -8 4 -9 -1 -4 -16 6 -17 4 -21 -6 -14 -11 6 -12 5 -3 -7 9 -11 9 -17 -1
-26 -7 -6 -17 -9 -21 -5 -5 4 -2 -2 6 -13 8 -11 11 -17 6 -13 -9 8 -19 -1 -55
-47 -12 -16 -25 -29 -27 -27 -2 1 -5 1 -6 1 -2 -1 -19 -2 -38 -3 -39 -2 -90
-25 -57 -26 9 0 17 5 17 11 0 6 7 3 16 -5 8 -9 20 -13 26 -10 7 4 8 2 4 -4 -4
-6 -14 -8 -23 -5 -9 4 -21 -1 -28 -11 -11 -14 -13 -15 -18 -1 -4 9 -13 12 -24
8 -16 -6 -17 -5 -3 13 14 19 14 19 -8 0 -23 -20 -28 -28 -14 -23 4 1 7 -1 7
-4 0 -3 6 -13 14 -23 11 -13 17 -14 30 -4 10 8 9 5 -3 -10 -21 -24 -27 -27
-23 -11 1 6 -9 18 -23 27 -19 14 -22 14 -15 2 7 -13 6 -13 -7 -2 -13 10 -16 9
-21 -7 -4 -15 -1 -18 12 -14 9 4 13 3 9 -2 -4 -4 0 -14 10 -22 15 -13 15 -13
-5 -4 -26 13 -36 14 -29 3 3 -5 -1 -9 -10 -9 -10 0 -13 7 -9 21 4 15 1 13 -10
-6 -13 -24 -36 -37 -73 -44 -6 -1 -9 2 -6 8 4 6 -3 5 -15 -2 -12 -6 -30 -8
-41 -5 -10 3 -21 1 -25 -4 -3 -7 0 -8 9 -5 9 3 16 1 16 -6 0 -6 6 -8 13 -4 7
4 8 3 4 -2 -12 -12 -60 -11 -70 1 -5 6 -7 4 -4 -5 2 -8 12 -14 22 -12 10 2 14
-1 10 -8 -4 -6 -15 -8 -26 -5 -15 5 -19 2 -17 -16 2 -16 -3 -22 -19 -24 -13
-1 -23 3 -23 8 0 5 10 7 23 4 20 -6 21 -5 4 7 -14 11 -15 15 -5 19 9 4 8 6 -3
6 -9 1 -19 -6 -23 -14 -3 -8 -16 -15 -28 -16 -22 -1 -22 -1 2 -9 l25 -8 -25
-2 c-14 -1 -29 -1 -35 0 -38 8 -45 8 -40 -1 4 -5 11 -7 16 -4 5 3 6 -1 3 -10
-5 -12 -9 -13 -20 -4 -10 8 -14 8 -14 0 0 -6 -14 -11 -31 -11 -21 0 -28 -4
-23 -12 6 -10 4 -10 -7 -1 -16 15 -33 17 -24 3 5 -9 -16 -14 -52 -13 -7 1 -13
-2 -13 -6 0 -4 -9 -7 -20 -7 -16 0 -19 5 -14 21 4 11 13 24 20 28 8 4 14 17
14 28 0 11 25 45 55 76 51 52 67 85 46 97 -4 3 -13 -6 -20 -20 -6 -14 -17 -24
-24 -21 -28 9 -136 -67 -137 -98 0 -19 -40 -45 -66 -45 -19 0 -41 -15 -75 -50
-28 -29 -57 -50 -69 -50 -12 0 -18 5 -15 10 3 5 -1 10 -10 10 -12 0 -14 -4 -5
-19 13 -25 13 -42 -1 -19 -6 11 -16 15 -27 11 -15 -6 -16 -5 -2 13 14 17 13
18 -1 7 -12 -10 -18 -10 -29 0 -12 10 -12 9 -2 -4 6 -9 8 -20 4 -24 -4 -5 -2
-5 5 -1 6 3 14 2 18 -3 6 -11 -29 -34 -38 -25 -3 3 -3 12 0 20 4 10 0 12 -11
8 -9 -3 -13 -11 -9 -18 4 -7 1 -6 -9 2 -8 7 -23 10 -32 6 -11 -4 -16 -1 -17
12 0 16 -2 15 -10 -4 -5 -13 -14 -20 -20 -17 -8 5 -8 10 0 18 16 16 13 27 -6
26 -12 0 -13 -2 -5 -6 10 -4 10 -8 1 -19 -9 -11 -8 -18 2 -31 11 -14 8 -13 -9
2 -15 12 -21 26 -18 40 5 20 5 20 -9 1 -8 -11 -15 -23 -15 -26 0 -4 -7 -7 -16
-7 -12 0 -14 8 -11 34 3 19 2 31 -2 28 -3 -4 -7 -11 -7 -16 -1 -5 -2 -15 -3
-21 -1 -7 -6 -3 -11 9 -10 26 -48 24 -63 -3 -14 -25 -112 -64 -163 -64 -75 0
-107 20 -147 91 -19 35 -45 72 -57 82 -11 10 -18 23 -14 29 5 7 3 8 -7 2 -19
-12 -40 -14 -34 -4 3 5 -3 9 -12 9 -86 3 -146 11 -157 20 -7 6 -15 8 -19 5 -3
-3 -8 4 -12 15 -4 13 -11 18 -22 14 -12 -5 -14 -3 -8 7 6 10 4 12 -9 7 -13 -5
-17 -3 -13 7 4 10 1 13 -8 10 -20 -8 -26 -32 -11 -46 39 -40 74 -128 79 -198
2 -31 -2 -36 -43 -58 -41 -22 -49 -23 -113 -14 -38 6 -76 17 -86 26 -17 15
-67 109 -73 136 -2 8 -5 17 -8 20 -3 3 -10 19 -16 37 -9 24 -9 33 0 37 7 3 7
5 -2 5 -7 1 -17 12 -22 26 -12 31 6 86 25 79 20 -8 28 14 12 31 -9 8 -13 25
-10 37 3 15 2 19 -4 11 -12 -17 -43 17 -43 47 0 6 -4 10 -9 10 -5 0 -7 -10 -4
-22 5 -22 5 -22 -9 -4 -14 18 -16 18 -25 2 -9 -16 -12 -13 -27 17 -15 33 -18
35 -46 27 -17 -5 -28 -5 -26 -1 3 4 -8 12 -24 19 -15 7 -30 22 -33 32 -4 17 0
20 26 21 18 1 35 1 39 0 5 0 7 4 5 11 -1 7 17 17 43 23 42 11 45 14 53 53 5
26 15 43 26 47 20 6 77 -20 89 -41 4 -8 25 -17 46 -21 30 -5 41 -2 48 10 6 11
22 17 47 17 22 0 44 6 51 15 7 9 29 15 55 15 26 0 48 6 55 15 7 8 19 15 28 15
8 0 23 7 33 16 17 15 49 21 117 23 21 1 32 6 32 16 0 8 6 16 13 16 6 1 17 2
22 3 13 1 55 44 55 55 0 5 4 11 10 13 6 2 4 13 -4 29 -9 18 -10 32 -4 43 7 12
5 22 -4 33 -8 10 -8 14 -1 10 7 -5 6 3 -3 22 -8 16 -15 45 -16 65 -1 19 -5 33
-9 31 -17 -11 -31 103 -15 124 8 11 8 13 0 8 -7 -4 -15 0 -18 9 -3 8 -11 12
-17 8 -8 -4 -9 1 -4 16 4 12 3 20 -1 18 -11 -6 -45 28 -36 36 14 14 10 37 -5
32 -13 -6 -14 -4 -3 9 11 13 11 16 0 13 -7 -2 -15 3 -17 10 -3 6 1 12 9 12 10
0 9 3 -2 10 -13 9 -13 11 0 20 9 6 10 10 3 10 -6 0 -15 9 -18 20 -4 11 -11 18
-16 15 -5 -4 -7 9 -3 30 4 25 2 35 -5 30 -6 -3 -11 1 -11 9 0 8 -8 20 -17 25
-11 6 -13 11 -5 11 10 0 10 5 2 20 -7 12 -16 18 -23 13 -8 -4 -8 -2 1 9 9 11
10 18 2 23 -6 4 -9 14 -8 23 2 11 -3 16 -13 14 -10 -1 -19 6 -22 18 -3 11 -11
19 -19 17 -7 -2 -9 -2 -5 1 4 2 2 11 -5 20 -11 13 -10 15 4 9 10 -3 20 -1 24
5 4 6 3 8 -4 4 -6 -3 -18 2 -28 11 -12 13 -19 14 -22 5 -4 -14 -28 -16 -37 -2
-4 6 1 7 11 3 12 -4 15 -3 10 5 -4 7 -16 12 -26 12 -13 0 -17 5 -14 14 3 9 -5
18 -23 24 -15 6 -22 11 -15 11 6 1 12 6 12 12 0 5 -3 8 -8 5 -4 -2 -18 2 -32
10 l-25 15 25 -5 c14 -3 19 -3 12 0 -6 3 -10 10 -6 15 3 5 -7 4 -21 -1 -34
-13 -45 -12 -22 1 18 10 18 11 0 24 -10 7 -21 11 -25 9 -5 -3 -8 1 -8 8 0 10
-2 11 -8 0 -12 -17 -63 23 -56 43 5 12 -4 14 -46 11 -37 -3 -53 0 -57 10 -3 8
-9 11 -14 8 -8 -5 -13 9 -10 28 0 3 -11 5 -24 3 -26 -2 -34 10 -12 18 6 3 -1
4 -18 4 -18 -1 -29 3 -28 10 2 7 -6 10 -17 8 -11 -2 -20 2 -20 8 0 7 -4 6 -10
-3 -8 -12 -14 -10 -40 15 -24 23 -30 25 -30 11 0 -9 -5 -14 -10 -11 -6 4 -9
14 -8 23 2 13 -5 17 -29 16 -18 0 -33 4 -33 8 0 4 -5 8 -11 8 -5 0 -7 -5 -3
-11 4 -7 1 -10 -7 -7 -8 3 -13 13 -12 22 0 11 -4 15 -13 12 -8 -3 -14 -2 -14
3 0 5 -11 7 -25 6 -14 -2 -23 1 -19 6 3 5 0 9 -6 9 -6 0 -9 4 -6 8 7 12 -104
-10 -131 -26 -12 -6 -28 -12 -36 -12 -8 0 -34 -18 -59 -39 -32 -29 -55 -40
-84 -43 -31 -2 -40 -7 -42 -25 -3 -19 -17 -35 -93 -105 -10 -10 -27 -18 -37
-18 -16 0 -62 -77 -63 -105 0 -5 -13 -21 -29 -35 -17 -14 -30 -34 -30 -47 0
-14 -6 -23 -15 -23 -10 0 -15 -10 -15 -30 0 -20 -5 -30 -15 -30 -10 0 -15 -10
-15 -29 0 -26 -16 -39 -47 -39 -3 0 -10 -7 -15 -16 -5 -9 -14 -16 -21 -16 -8
0 -8 3 -2 8 24 18 6 44 -29 41 -5 0 -13 5 -17 13 -5 7 -9 8 -9 3 0 -6 -27 -10
-64 -10 -42 1 -63 -3 -59 -10 4 -7 2 -7 -6 1 -15 14 -133 7 -146 -8 -5 -7 -25
-12 -42 -10 -20 2 -33 -1 -33 -8 0 -6 -4 -9 -9 -5 -5 3 -13 0 -16 -6 -4 -5
-13 -8 -21 -5 -12 4 -12 2 -4 -14 7 -13 7 -20 1 -20 -6 0 -8 -7 -5 -15 4 -10
0 -15 -14 -15 -11 0 -23 6 -25 13 -4 9 -6 9 -6 -1 -1 -20 -42 -51 -67 -52 -22
0 -64 -38 -64 -58 0 -7 -4 -12 -9 -12 -5 0 -12 -8 -15 -17 -6 -19 -59 -53 -82
-53 -8 0 -17 -7 -20 -15 -4 -8 -12 -15 -20 -15 -8 0 -14 -9 -14 -19 0 -28 -11
-52 -20 -46 -5 3 -11 1 -15 -5 -3 -5 -12 -10 -18 -10 -16 0 -49 59 -40 72 3 7
1 8 -5 4 -7 -4 -12 -3 -12 2 0 5 -11 14 -24 21 -23 13 -52 59 -42 68 4 5 -31
49 -68 84 -10 10 -23 16 -28 13 -4 -3 -11 3 -14 13 -24 73 -50 131 -66 145
-10 9 -18 23 -18 32 0 9 -5 16 -12 16 -6 0 -9 3 -5 6 3 4 0 13 -8 21 -8 8 -15
23 -15 34 0 10 -9 24 -20 31 -11 7 -20 18 -20 25 0 7 -4 13 -8 13 -5 0 -15 25
-22 56 -10 39 -20 58 -32 62 -10 2 -18 13 -18 24 0 10 -6 29 -14 41 -8 12 -13
35 -12 51 3 21 -1 30 -16 34 -15 4 -17 7 -6 13 11 7 11 9 -1 9 -10 0 -12 9 -7
34 5 24 3 35 -8 39 -9 4 -12 15 -8 33 4 20 2 25 -8 19 -10 -6 -12 -4 -7 8 3 9
2 19 -4 22 -5 4 -7 10 -4 15 3 5 1 11 -5 15 -6 4 -8 11 -4 16 3 5 2 15 -3 22
-5 7 -8 27 -8 45 1 17 -1 32 -5 32 -10 0 -9 39 2 46 7 4 7 9 0 13 -13 8 -24
111 -12 111 6 0 10 7 10 16 0 11 -6 14 -17 10 -15 -5 -15 -4 1 9 14 11 16 15
5 15 -12 0 -12 2 1 10 8 5 11 10 6 10 -5 0 -3 6 3 14 9 11 9 16 0 22 -8 5 -10
3 -4 -7 7 -12 5 -12 -6 -1 -11 10 -11 15 -1 20 15 10 6 93 -12 104 -6 4 -7 8
-1 8 6 0 10 35 9 87 0 49 2 93 5 98 10 17 14 39 40 220 5 39 14 86 20 105 6
20 12 55 14 80 2 24 9 46 15 48 7 2 12 14 12 27 0 12 14 54 32 91 35 75 34 72
43 124 4 19 13 49 20 65 8 17 17 41 19 55 10 44 31 100 38 100 14 0 8 27 -9
41 -13 11 -17 11 -20 2 -3 -7 -9 -13 -15 -13 -26 0 -133 -85 -189 -149 -34
-39 -66 -71 -70 -71 -5 0 -9 -7 -9 -15 0 -8 -4 -15 -10 -15 -5 0 -10 -6 -10
-13 0 -8 -26 -50 -58 -93 -33 -43 -69 -101 -82 -129 -12 -27 -29 -62 -36 -77
-8 -14 -14 -33 -14 -41 0 -8 -7 -20 -15 -27 -8 -7 -15 -20 -15 -30 0 -10 -7
-23 -15 -30 -8 -7 -15 -23 -15 -35 0 -12 -7 -28 -15 -35 -8 -7 -15 -25 -15
-40 0 -15 -7 -33 -15 -40 -9 -8 -15 -30 -15 -59 0 -26 -7 -56 -15 -67 -8 -10
-15 -30 -15 -42 0 -13 -6 -36 -14 -50 -19 -38 -37 -107 -45 -182 -4 -36 -13
-75 -19 -87 -7 -12 -12 -44 -12 -72 0 -31 -6 -55 -15 -65 -8 -8 -15 -20 -15
-26 0 -16 -58 -70 -75 -70 -8 0 -15 -7 -15 -15 0 -8 -6 -15 -13 -15 -19 0 -35
-59 -25 -95 4 -16 10 -48 13 -70 18 -133 25 -182 28 -195 2 -8 7 -37 12 -65 4
-27 11 -54 15 -60 5 -5 13 -37 19 -70 5 -33 14 -80 20 -105 5 -25 15 -72 21
-105 14 -66 23 -93 69 -205 17 -41 34 -95 37 -119 4 -25 13 -56 21 -70 7 -14
13 -36 13 -48 0 -22 29 -86 43 -91 9 -4 47 -86 47 -101 0 -6 4 -11 10 -11 5 0
12 -17 16 -37 4 -21 11 -47 17 -58 6 -11 11 -27 12 -35 2 -20 75 -154 99 -182
10 -11 19 -32 20 -44 0 -13 4 -24 7 -24 3 0 14 -27 24 -60 10 -33 24 -65 32
-71 7 -6 13 -22 13 -35 0 -13 4 -24 9 -24 5 0 13 -10 17 -22 3 -12 12 -28 18
-35 6 -7 16 -18 21 -25 6 -7 11 -68 12 -134 2 -98 0 -124 -12 -134 -11 -9 -15
-32 -15 -81 0 -52 -3 -69 -14 -69 -16 0 -26 -51 -26 -139 0 -62 0 -63 -25 -59
-14 3 -25 1 -25 -4 0 -5 -4 -7 -9 -3 -5 3 -12 1 -16 -5 -3 -5 -12 -10 -18 -10
-7 0 -6 4 3 10 12 8 10 10 -8 10 -19 0 -22 -4 -17 -21 5 -15 4 -19 -4 -15 -6
4 -11 14 -11 23 0 9 -3 13 -7 10 -3 -4 -12 -2 -20 5 -11 8 -12 7 -8 -5 4 -8 1
-18 -6 -23 -8 -5 -10 -3 -4 7 7 12 6 12 -7 1 -14 -11 -20 -10 -36 5 -20 19
-33 24 -69 27 -13 0 -23 5 -23 10 0 4 -6 6 -14 3 -7 -3 -24 2 -37 10 -12 9
-20 12 -16 6 3 -5 0 -10 -8 -10 -8 0 -12 4 -9 9 3 4 -2 8 -11 8 -9 0 -14 4
-11 8 3 5 -1 9 -9 10 -8 1 -22 3 -30 4 -8 1 -12 5 -9 10 3 4 0 8 -6 8 -6 0 -8
5 -5 10 3 6 0 10 -8 10 -8 0 -17 10 -21 23 -4 17 -16 26 -43 33 -21 5 -37 15
-36 22 2 7 0 11 -5 10 -11 -4 -53 28 -45 35 3 4 1 7 -5 7 -7 0 -12 9 -12 19 0
19 -47 61 -68 61 -15 0 -82 81 -88 106 -3 12 -25 42 -48 67 -23 25 -48 58 -55
73 -7 16 -17 36 -22 44 -5 8 -22 43 -38 76 -16 34 -38 71 -50 83 -22 22 -50
80 -57 121 -3 13 -9 27 -14 30 -5 3 -11 17 -14 30 -5 28 -29 98 -44 126 -38
77 -69 166 -77 223 -4 23 -10 53 -15 65 -4 12 -11 49 -15 82 -4 32 -11 77 -15
99 -5 22 -11 60 -15 85 -3 25 -10 59 -15 75 -27 95 -43 367 -28 487 4 34 3 60
-2 63 -6 3 -10 -3 -10 -14 0 -11 -7 -27 -16 -36 -11 -10 -18 -40 -21 -83 -3
-37 -10 -72 -15 -79 -5 -6 -11 -51 -14 -100 -2 -48 -9 -137 -15 -198 -12 -128
-31 -998 -32 -1450 0 -332 7 -458 29 -476 8 -6 14 -23 14 -38 0 -14 7 -39 15
-55 8 -15 15 -37 15 -47 0 -20 40 -102 52 -107 4 -2 8 -9 8 -16 0 -7 9 -23 20
-36 11 -13 20 -26 20 -29 0 -3 10 -17 23 -31 12 -14 34 -43 47 -65 13 -22 45
-60 70 -85 25 -25 56 -60 70 -78 14 -18 45 -45 70 -61 25 -15 66 -48 92 -74
45 -43 82 -69 121 -83 9 -3 17 -10 17 -15 0 -5 10 -14 23 -19 27 -12 51 -27
97 -61 19 -14 56 -36 82 -48 27 -13 50 -27 54 -32 3 -5 14 -9 24 -9 10 0 23
-6 27 -13 4 -8 15 -17 23 -20 8 -4 29 -16 45 -27 17 -11 40 -24 52 -29 11 -5
24 -15 28 -20 3 -6 15 -11 25 -11 10 0 25 -7 34 -15 8 -8 21 -15 30 -15 8 0
21 -6 28 -14 8 -7 24 -17 36 -20 12 -4 22 -12 22 -17 0 -5 9 -9 19 -9 11 0 22
-4 25 -9 3 -5 43 -27 88 -49 46 -22 101 -57 123 -77 22 -19 58 -48 80 -62 43
-30 103 -86 343 -323 86 -85 168 -162 181 -170 13 -8 29 -20 35 -25 19 -19
133 -85 145 -85 6 0 11 -4 11 -10 0 -5 8 -10 18 -10 9 0 31 -7 47 -16 82 -43
217 -69 315 -59 62 6 188 37 220 54 9 5 31 12 50 16 19 4 40 11 45 15 6 4 26
10 46 14 44 8 107 38 134 63 25 24 83 53 104 53 25 -1 47 -22 71 -67 11 -23
31 -52 43 -66 12 -13 31 -40 41 -60 22 -42 61 -80 165 -159 63 -48 82 -57 130
-63 59 -7 140 13 172 41 8 8 20 14 26 14 23 0 173 163 173 189 0 5 14 24 30
41 17 17 30 36 30 42 0 18 41 98 50 98 5 0 7 11 4 25 -2 14 0 25 6 25 6 0 8 5
5 10 -3 6 -1 10 4 10 6 0 11 5 11 11 0 6 7 17 16 26 8 9 13 22 10 30 -3 8 -2
11 3 8 8 -5 24 10 27 25 0 3 6 18 12 33 7 16 12 35 12 43 0 8 5 14 11 14 5 0
8 4 5 9 -3 5 1 14 8 21 14 11 16 19 16 83 0 15 3 26 7 25 11 -2 67 14 73 21
18 22 81 60 110 66 19 4 40 11 45 15 6 4 43 18 84 30 40 12 85 29 100 36 14 8
38 14 53 14 15 0 29 4 33 9 3 6 27 13 53 16 65 9 120 29 255 96 31 16 62 29
68 29 6 0 17 7 25 15 9 8 26 15 40 15 14 0 27 7 30 15 4 8 17 15 31 15 14 0
23 5 21 11 -4 12 -5 12 -78 3 -30 -4 -99 -8 -155 -9 -55 -1 -156 -6 -225 -11
-69 -4 -233 -7 -365 -7 -315 1 -355 1 -385 -1 -14 -1 -34 2 -45 8 -20 10 -64
14 -190 19 -38 1 -77 6 -85 12 -8 5 -36 10 -63 12 -59 3 -93 9 -108 19 -6 3
-23 8 -38 10 -14 2 -45 5 -69 8 -24 3 -59 10 -77 15 -19 5 -36 6 -39 3 -3 -3
-6 4 -6 16 0 15 8 24 24 28 14 3 27 12 30 20 3 8 17 14 31 14 16 0 25 6 25 15
0 8 3 15 8 16 30 3 47 10 54 23 5 9 17 16 27 16 24 0 84 30 94 47 4 7 16 13
26 13 10 0 24 7 31 15 7 8 21 15 31 15 10 0 32 13 48 29 17 17 54 36 85 45 31
9 56 20 56 25 0 4 18 14 40 21 22 7 40 17 40 22 0 5 10 4 21 -3 16 -8 20 -8
14 1 -6 9 -2 9 14 1 16 -9 21 -9 21 1 0 8 5 7 16 -4 12 -11 23 -14 38 -9 11 5
31 7 44 6 12 -1 22 1 22 4 0 3 11 6 24 6 13 0 22 -3 20 -6 -2 -4 3 -10 12 -13
10 -4 13 -2 8 7 -6 9 -4 9 7 1 9 -7 57 -11 134 -10 125 3 149 0 139 -15 -3 -5
17 -9 45 -9 29 0 51 5 53 12 3 7 11 9 24 3 10 -4 22 -8 25 -7 49 9 60 9 64 1
4 -5 20 -9 36 -9 17 0 28 4 24 9 -3 5 0 13 6 17 7 4 9 3 6 -3 -4 -6 0 -13 8
-17 8 -3 15 -2 15 3 0 13 39 20 47 9 3 -6 2 -8 -3 -5 -6 3 -16 1 -24 -4 -12
-7 -11 -8 5 -6 11 1 25 6 32 10 6 4 14 3 18 -3 8 -13 82 -13 90 0 3 6 20 10
36 10 20 0 28 4 23 12 -4 7 -3 8 4 4 20 -12 51 -15 57 -5 4 5 11 7 16 4 5 -4
9 -3 9 2 0 4 11 8 24 8 13 0 22 -3 20 -6 -2 -3 12 -5 31 -5 19 1 35 5 35 11 0
5 5 3 10 -5 7 -11 10 -11 10 -2 0 10 5 10 21 1 16 -8 20 -8 14 1 -6 9 -2 9 14
1 15 -8 21 -9 21 -1 0 6 4 9 9 5 5 -3 26 5 46 17 29 17 41 19 55 10 13 -8 21
-7 30 1 10 9 11 9 6 0 -4 -7 -2 -13 3 -13 6 0 11 7 11 15 0 8 3 14 8 13 4 -1
18 4 32 12 27 15 26 15 80 24 77 14 221 70 257 100 45 37 105 78 158 106 11 6
34 19 50 30 17 11 40 24 52 29 11 5 24 15 28 20 3 6 13 11 22 11 18 0 60 20
158 76 33 18 72 39 88 45 15 6 27 15 27 20 0 5 7 9 16 9 13 0 54 23 168 93 11
7 25 16 30 20 31 23 119 77 126 77 4 0 10 7 14 15 3 8 10 15 16 15 5 0 28 19
51 42 40 42 68 62 102 74 9 3 17 13 17 20 0 8 7 14 15 14 8 0 15 7 15 15 0 9
7 18 15 21 8 4 15 12 15 19 0 7 5 15 12 17 10 4 16 18 22 60 1 10 6 21 11 25
4 5 5 3 1 -4 -3 -6 -3 -14 1 -16 5 -3 9 15 9 39 1 32 8 52 24 69 13 14 19 25
14 25 -5 0 -3 4 5 9 8 5 16 15 17 23 8 48 14 69 24 88 6 12 13 43 15 68 1 26
4 48 5 50 1 1 3 5 5 10 1 4 6 18 12 32 6 14 10 46 9 72 -1 25 2 44 7 41 12 -7
8 12 -5 26 -11 11 -10 12 1 6 10 -6 11 -2 6 16 -5 13 -14 46 -21 73 -7 27 -18
52 -23 55 -6 4 -12 22 -15 41 -10 72 -43 138 -61 122 -5 -4 -5 1 -2 10 4 10
-4 26 -20 42 -14 14 -22 26 -17 26 5 0 2 5 -8 10 -10 6 -15 20 -13 35 1 14 -2
25 -6 25 -5 0 -9 7 -9 15 0 8 -8 29 -18 47 -10 18 -22 45 -25 60 -4 15 -12 40
-19 55 -6 15 -12 35 -14 43 -2 8 -10 20 -18 26 -9 6 -16 21 -16 32 0 11 -4 24
-10 27 -5 3 -10 15 -10 27 0 11 -6 34 -13 51 -19 45 -47 152 -56 219 -10 62
-16 78 -35 78 -24 0 -62 183 -57 285 0 22 4 57 7 78 6 37 7 38 25 21 10 -9 19
-21 19 -26 0 -4 9 -17 20 -28 20 -20 23 -46 25 -230 1 -36 2 -69 3 -75 3 -13
71 126 72 145 0 9 6 24 13 35 43 63 46 320 6 425 -11 30 -25 71 -29 90 -21 83
-69 203 -92 228 -14 15 -32 41 -40 57 -52 102 -86 156 -128 200 -26 28 -59 71
-73 96 -14 25 -42 58 -62 73 -20 15 -52 52 -71 81 -20 30 -53 65 -74 79 -21
14 -58 48 -81 76 -24 28 -64 61 -88 73 -24 12 -58 39 -75 61 -17 21 -60 56
-96 78 -78 47 -153 99 -183 125 -12 11 -42 28 -67 38 -25 10 -58 31 -75 46
-30 27 -207 129 -224 129 -5 0 -37 20 -71 45 -34 26 -78 53 -98 62 -122 51
-179 77 -192 84 -85 49 -139 66 -355 108 -229 45 -408 59 -535 40z m-507 -306
c-7 -2 -19 -2 -25 0 -7 3 -2 5 12 5 14 0 19 -2 13 -5z m-2429 -1049 c3 -8 2
-12 -4 -9 -6 3 -10 10 -10 16 0 14 7 11 14 -7z m1196 -1194 c0 -5 -5 -10 -11
-10 -5 0 -7 5 -4 10 3 6 8 10 11 10 2 0 4 -4 4 -10z m78 -75 c-3 -13 0 -26 5
-28 8 -2 7 -6 0 -10 -6 -4 -18 0 -27 9 -12 12 -13 20 -6 35 15 27 33 24 28 -6z
m-24 -55 c7 0 13 -7 13 -15 0 -8 -4 -15 -9 -15 -4 0 -8 5 -8 11 0 6 -6 9 -13
6 -10 -4 -12 2 -8 21 3 19 6 22 9 10 2 -10 9 -18 16 -18z m46 -14 c0 -3 -4 -8
-10 -11 -5 -3 -10 -1 -10 4 0 6 5 11 10 11 6 0 10 -2 10 -4z m416 -111 c17
-27 12 -76 -11 -95 -15 -12 -63 -3 -82 16 -18 17 -16 55 3 82 21 31 69 30 90
-3z m-618 1 c20 -12 69 -92 74 -121 8 -38 -8 -89 -38 -125 -22 -26 -33 -30
-74 -30 -66 0 -98 16 -121 62 -22 43 -32 105 -19 113 6 4 10 14 10 24 0 23 49
77 75 83 27 6 79 3 93 -6z m2085 -1 c4 -8 3 -16 -1 -19 -4 -3 -9 4 -9 15 -2
23 3 25 10 4z m68 -212 c13 -16 12 -17 -3 -4 -17 13 -22 21 -14 21 2 0 10 -8
17 -17z m-1756 -197 c35 -12 51 -100 30 -166 -8 -23 -66 -56 -105 -58 -29 -3
-43 4 -76 35 -46 43 -55 85 -33 147 12 32 36 46 104 60 10 3 43 -5 80 -18z
m951 -9 c38 -33 46 -113 15 -156 -25 -34 -85 -57 -124 -47 -41 10 -70 68 -65
126 3 27 12 60 22 74 14 23 24 26 71 26 42 0 60 -5 81 -23z m-453 -25 c30 -33
44 -91 34 -138 -13 -54 -5 -74 29 -74 14 0 37 -9 51 -20 14 -11 34 -20 43 -20
13 0 19 -11 25 -45 9 -67 -1 -98 -46 -139 -32 -29 -49 -36 -80 -36 -81 0 -181
80 -169 135 7 34 7 85 -1 85 -5 0 -12 1 -16 2 -13 2 -32 32 -33 51 0 10 -7 20
-15 23 -19 8 -20 50 -1 57 8 3 18 21 21 40 4 19 15 49 26 66 17 28 24 31 67
31 35 0 54 -5 65 -18z m3144 -17 c0 -8 -4 -12 -9 -9 -5 3 -6 10 -3 15 9 13 12
11 12 -6z m68 -124 c-3 -2 1 -11 8 -20 10 -14 10 -14 -4 -4 -9 7 -18 10 -21 7
-3 -2 -8 1 -11 8 -3 9 2 14 14 14 10 0 16 -2 14 -5z m-3440 -216 c0 -22 -31
-33 -47 -17 -17 17 -1 44 24 40 15 -2 23 -10 23 -23z m3370 -15 c-3 -5 -12
-10 -18 -10 -7 0 -6 4 3 10 19 12 23 12 15 0z m-2807 -234 c31 -28 38 -41 37
-71 0 -21 -7 -42 -15 -48 -9 -7 -22 -26 -29 -44 -7 -17 -18 -34 -25 -36 -6 -3
-13 -20 -14 -38 -6 -73 -64 -62 -71 14 -1 5 -6 5 -13 1 -6 -4 -8 -3 -5 3 4 6
-1 26 -10 44 -25 49 -30 152 -9 184 14 21 24 25 66 25 43 0 55 -5 88 -34z
m1375 -221 c-3 -9 -8 -14 -10 -11 -3 3 -2 9 2 15 9 16 15 13 8 -4z m-1827
-351 c36 -17 48 -42 42 -90 -4 -40 -61 -77 -103 -68 -44 9 -63 30 -75 86 -12
58 -4 74 38 81 53 8 64 7 98 -9z m-105 -887 c34 -26 51 -93 31 -124 -19 -29
-101 -42 -145 -22 -53 24 -59 100 -10 139 29 23 99 27 124 7z"/>
<path d="M4260 3876 c0 -2 7 -7 16 -10 8 -3 12 -2 9 4 -6 10 -25 14 -25 6z"/>
<path d="M4436 3743 c-6 -14 -5 -15 5 -6 7 7 10 15 7 18 -3 3 -9 -2 -12 -12z"/>
<path d="M6160 3725 c0 -10 7 -15 18 -13 21 4 19 22 -2 26 -10 2 -16 -3 -16
-13z"/>
<path d="M6494 3624 c9 -10 33 -6 54 11 1 1 -13 2 -32 2 -26 0 -31 -3 -22 -13z"/>
</g>
</svg>
